<svg xmlns="http://www.w3.org/2000/svg" width="40" height="26" fill="none" viewBox="0 0 40 26"><path fill="#1F0038" d="M0 0h40v26H0V0Z"/><path fill="url(#a)" d="M10.1 8.76c-1.51.69-2.54 2.02-2.54 3.54 0 1.92 1.77 3.48 3.96 3.48 1 0 1.7-.23 2.53-.73.09-.05.19-.09.25 0 .04.04.02.1 0 .15a5.5 5.5 0 1 1-8.23-6.99c.93-.76 3.3-.86 4.03.55Z"/><path fill="#fff" d="M14.23 10.89c0 1.82-1.75 3.3-3.9 3.3a4.8 4.8 0 0 1-1.77-.32c-.17-.08-.15-.18-.03-.23.27-.11 2.44-.53 2.44-2.75 0-2.23-2.3-3.85-4.91-2.68A5.48 5.48 0 0 1 9.5 7c2.56 0 4.73 1.74 4.73 3.89Zm3.92.12c-1.19 0-1.82.72-1.82 1.64v.03c0 .93.5 1.53 1.76 1.53.92 0 1.53-.29 1.8-.98H19c-.13.22-.38.35-.85.35-.64 0-.96-.24-1.05-.67h2.83v-.32c0-.91-.62-1.58-1.78-1.58Zm-1.04 1.3c.1-.42.45-.67 1.05-.67.58 0 .88.22.96.67h-2Zm6.38-2.01h-.69c0 .13 0 .35-.03.49-.04.25-.1.3-.33.32-.14.02-.3.02-.45.02h-.54V11c0-.46.09-.54.49-.54h.26V9.8h-.35c-.87 0-1.17.3-1.17 1.16v.16h-.7v.68h.7v2.31h.77V11.8h1.27v.94c0 1.02.27 1.37 1.28 1.37h.57v-.71h-.37c-.61 0-.71-.1-.71-.8v-.8h1.08v-.69h-1.08v-.83Zm3.48.72c-.6 0-1.04.25-1.27.66l-.07-.55h-.69v4.06h.8v-1.54c.2.35.6.55 1.2.55.85 0 1.56-.51 1.56-1.54v-.03c0-1.04-.59-1.6-1.53-1.6Zm.7 1.63c0 .57-.3.89-.98.89-.64 0-.97-.32-.97-.9v-.02c0-.59.37-.94.98-.94.65 0 .97.33.97.95v.02Zm2.94-1.64c-1.07 0-1.8.6-1.8 1.61v.04c0 .98.54 1.55 1.79 1.55 1.2 0 1.82-.6 1.82-1.55v-.04c0-1.01-.71-1.6-1.8-1.6Zm.99 1.64c0 .57-.3.89-.99.89-.66 0-.98-.31-.98-.89v-.03c0-.61.36-.94 1-.94s.97.34.97.94v.03Zm2.91-.36c-.78-.05-1-.1-1-.33 0-.18.16-.34.72-.34.49 0 .8.12.86.42h.86c-.16-.68-.7-1.03-1.71-1.03-1.02 0-1.51.43-1.51 1.02 0 .62.52.82 1.45.87.78.04 1.02.1 1.02.32s-.19.35-.75.35c-.59 0-.85-.12-.93-.44h-.91c.13.72.7 1.08 1.8 1.08 1.06 0 1.59-.43 1.59-1.02 0-.65-.45-.84-1.49-.9Zm1.83-.62a.35.35 0 0 1-.24-.08.3.3 0 0 1-.1-.24v-.01a.37.37 0 0 1 .05-.18.3.3 0 0 1 .12-.11.3.3 0 0 1 .17-.04.4.4 0 0 1 .16.04.3.3 0 0 1 .12.1c.03.06.05.12.05.19v.01l-.01.1-.04.08a.28.28 0 0 1-.12.1.36.36 0 0 1-.16.04Zm0-.05c.08 0 .14-.02.2-.07a.3.3 0 0 0 .07-.2v-.01a.26.26 0 0 0-.08-.2.27.27 0 0 0-.2-.08.26.26 0 0 0-.19.08.27.27 0 0 0-.07.2c0 .1.02.16.07.2.05.05.12.08.2.08Zm0-.24h-.07v.13h-.06v-.34h.14c.05 0 .08 0 .1.02a.1.1 0 0 1 .03.08c0 .02 0 .04-.02.05a.1.1 0 0 1-.05.03c.02 0 .04.02.05.03l.01.06v.07h-.05v-.07l-.02-.05-.06-.01Zm0-.05.07-.01.01-.05c0-.02 0-.03-.02-.04a.1.1 0 0 0-.05-.01h-.08v.11h.07Z"/><defs><linearGradient id="a" x1="9.21" x2="7.11" y1="14.31" y2="3.48" gradientUnits="userSpaceOnUse"><stop offset=".14" stop-color="#fff"/><stop offset=".75" stop-color="#fff" stop-opacity="0"/></linearGradient></defs></svg>